<?xml version="1.0" encoding="UTF-8" standalone="no"?>
<!DOCTYPE svg PUBLIC "-//W3C//DTD SVG 1.1//EN" "http://www.w3.org/Graphics/SVG/1.1/DTD/svg11.dtd">
<svg width="60px" height="60px" viewBox="0 0 512 512" version="1.1" xmlns="http://www.w3.org/2000/svg" xmlns:xlink="http://www.w3.org/1999/xlink" xml:space="preserve" xmlns:serif="http://www.serif.com/" style="fill-rule:evenodd;clip-rule:evenodd;stroke-linejoin:round;stroke-miterlimit:2;">
    <g id="V_Bottom" transform="matrix(2.25517,0,0,1.48757,-394.443,-212.347)">
        <path d="M284.219,420.594C286.666,417.568 290.179,417.568 292.626,420.594C297.637,426.788 306.277,437.47 313.795,446.766C315.976,449.462 316.801,453.945 315.858,457.963C314.914,461.981 312.405,464.664 309.592,464.664C296.838,464.664 280.007,464.664 267.254,464.664C264.44,464.664 261.931,461.981 260.988,457.963C260.044,453.945 260.87,449.462 263.05,446.766C270.569,437.47 279.209,426.788 284.219,420.594Z" style="fill:rgb(126,202,156);"/>
    </g>
    <g id="V_Left" transform="matrix(-0.506536,0.834346,2.14396,1.61813,273.901,-12.618)">
        <path d="M328.11,77.369C335.604,77.442 341.306,79.488 341.596,82.207C342.183,87.713 343.16,96.862 343.821,103.063C343.996,104.698 342.164,106.352 338.813,107.585C335.461,108.817 330.929,109.504 326.42,109.463C264.03,108.891 57.735,106.998 -16.109,106.321C-21.595,106.271 -26.294,105.153 -28.437,103.388C-30.58,101.624 -29.843,99.481 -26.502,97.766C-13.21,90.942 4.821,81.685 13.712,77.12C17.062,75.4 22.519,74.373 28.018,74.427C72.922,74.867 274.736,76.846 328.11,77.369Z" style="fill:rgb(126,202,156);"/>
    </g>
    <g id="V_Left1" serif:id="V_Left" transform="matrix(0.506536,0.834346,-2.14396,1.61813,238.099,-12.618)">
        <path d="M328.11,77.369C335.604,77.442 341.306,79.488 341.596,82.207C342.183,87.713 343.16,96.862 343.821,103.063C343.996,104.698 342.164,106.352 338.813,107.585C335.461,108.817 330.929,109.504 326.42,109.463C264.03,108.891 57.735,106.998 -16.109,106.321C-21.595,106.271 -26.294,105.153 -28.437,103.388C-30.58,101.624 -29.843,99.481 -26.502,97.766C-13.21,90.942 4.821,81.685 13.712,77.12C17.062,75.4 22.519,74.373 28.018,74.427C72.922,74.867 274.736,76.846 328.11,77.369Z" style="fill:rgb(126,202,156);"/>
    </g>
    <g id="V_Top" transform="matrix(1.64852,-1.19406e-16,1.1229e-15,2.2381,-39.5148,-136.596)">
        <path d="M325.44,75.834C327.856,75.834 330.174,76.541 331.882,77.8C333.591,79.058 334.551,80.765 334.551,82.545C334.551,88.575 334.551,97.385 334.551,103.416C334.551,107.123 330.471,110.128 325.438,110.128L33.091,110.128C28.053,110.128 23.97,107.121 23.97,103.41C23.97,97.381 23.97,88.579 23.97,82.551C23.97,80.769 24.931,79.061 26.641,77.801C28.351,76.542 30.67,75.834 33.089,75.834L325.44,75.834Z" style="fill:rgb(126,202,156);"/>
    </g>
</svg>
